<?xml version="1.0" encoding="UTF-8"?>
<svg xmlns="http://www.w3.org/2000/svg" xmlns:xlink="http://www.w3.org/1999/xlink" width="100" height="100" viewBox="250 200 1500 1600">
<path fill-rule="nonzero" fill="#779fb1"  d="M 1280.640625 1109.492188 L 1264.03125 1187.316406 L 1142.300781 1241.5625 L 1186.570312 1123.640625 Z M 967.988281 1626 C 947.699219 1608.707031 928.335938 1589.839844 909.886719 1569.394531 C 891.441406 1548.957031 874.84375 1527.730469 860.085938 1505.714844 C 882.21875 1493.140625 903.894531 1484.09375 925.101562 1478.59375 C 946.316406 1473.089844 969.839844 1470.34375 995.65625 1470.34375 C 1043.621094 1470.34375 1088.808594 1482.128906 1131.230469 1505.714844 C 1101.71875 1551.316406 1066.679688 1591.410156 1026.101562 1626 L 1026.101562 1668.453125 L 967.988281 1668.453125 Z M 1026.101562 1668.453125 L 1111.871094 1668.453125 L 1288.941406 1449.117188 L 1300.011719 1307.605469 L 1349.808594 1371.285156 L 1584.988281 1076.472656 L 1543.488281 1005.714844 L 1241.898438 880.710938 L 1048.230469 1069.394531 L 995.65625 1201.472656 L 943.085938 1069.394531 L 749.414062 880.710938 L 450.597656 1005.714844 L 406.332031 1076.472656 L 644.269531 1371.285156 L 694.074219 1307.605469 L 702.378906 1449.117188 L 879.449219 1668.453125 Z M 1513.050781 774.578125 L 1695.660156 1083.546875 L 1161.671875 1751 L 829.65625 1751 L 295.660156 1083.546875 L 478.269531 774.578125 L 616.609375 251 L 871.152344 597.699219 L 1125.699219 597.699219 L 1371.949219 251 Z M 1427.28125 736.851562 L 1341.511719 427.878906 L 1250.210938 633.078125 Z M 746.644531 633.078125 L 649.808594 427.878906 L 564.039062 736.851562 Z M 801.984375 1123.640625 L 851.785156 1241.5625 L 724.511719 1187.316406 L 713.445312 1109.492188 L 801.984375 1123.640625 "/>
</svg>
